<mxfile host="app.diagrams.net" modified="2021-06-24T05:13:56.359Z" agent="5.0 (Macintosh; Intel Mac OS X 10_14_6) AppleWebKit/537.36 (KHTML, like Gecko) Chrome/90.0.4430.212 Safari/537.36" etag="f-qn8U0qk8BcGxCbl50n" version="14.7.9" type="github">
  <diagram id="ntcGjyUBduR7sOyiUudM" name="Page-1">
    <mxGraphModel dx="1395" dy="1682" grid="1" gridSize="10" guides="1" tooltips="1" connect="1" arrows="1" fold="1" page="1" pageScale="1" pageWidth="850" pageHeight="1100" math="0" shadow="0">
      <root>
        <mxCell id="0" />
        <mxCell id="1" parent="0" />
        <mxCell id="UHCusJSntU0QaRRSibGP-1" value="Retailer" style="shape=cylinder3;whiteSpace=wrap;html=1;boundedLbl=1;backgroundOutline=1;size=15;" vertex="1" parent="1">
          <mxGeometry x="160" y="-60" width="160" height="160" as="geometry" />
        </mxCell>
        <mxCell id="UHCusJSntU0QaRRSibGP-2" value="PAN" style="rounded=0;whiteSpace=wrap;html=1;" vertex="1" parent="1">
          <mxGeometry x="170" y="-20" width="40" height="30" as="geometry" />
        </mxCell>
        <mxCell id="UHCusJSntU0QaRRSibGP-3" value="DMAT" style="rounded=0;whiteSpace=wrap;html=1;" vertex="1" parent="1">
          <mxGeometry x="220" y="-20" width="40" height="30" as="geometry" />
        </mxCell>
        <mxCell id="UHCusJSntU0QaRRSibGP-4" value="Bank Acc." style="rounded=0;whiteSpace=wrap;html=1;" vertex="1" parent="1">
          <mxGeometry x="270" y="-20" width="40" height="30" as="geometry" />
        </mxCell>
        <mxCell id="UHCusJSntU0QaRRSibGP-5" value="Basic Profile" style="rounded=0;whiteSpace=wrap;html=1;" vertex="1" parent="1">
          <mxGeometry x="190" y="50" width="100" height="30" as="geometry" />
        </mxCell>
        <mxCell id="UHCusJSntU0QaRRSibGP-6" value="Lead List" style="whiteSpace=wrap;html=1;aspect=fixed;" vertex="1" parent="1">
          <mxGeometry x="60" y="280" width="180" height="180" as="geometry" />
        </mxCell>
        <mxCell id="UHCusJSntU0QaRRSibGP-7" value="" style="endArrow=classic;html=1;entryX=0.145;entryY=1;entryDx=0;entryDy=-4.35;entryPerimeter=0;exitX=0.5;exitY=0;exitDx=0;exitDy=0;" edge="1" parent="1" source="UHCusJSntU0QaRRSibGP-8" target="UHCusJSntU0QaRRSibGP-1">
          <mxGeometry width="50" height="50" relative="1" as="geometry">
            <mxPoint x="115" y="300" as="sourcePoint" />
            <mxPoint x="170" y="170" as="targetPoint" />
          </mxGeometry>
        </mxCell>
        <mxCell id="UHCusJSntU0QaRRSibGP-32" value="POST" style="edgeLabel;html=1;align=center;verticalAlign=middle;resizable=0;points=[];" vertex="1" connectable="0" parent="UHCusJSntU0QaRRSibGP-7">
          <mxGeometry x="0.0452" y="-1" relative="1" as="geometry">
            <mxPoint as="offset" />
          </mxGeometry>
        </mxCell>
        <mxCell id="UHCusJSntU0QaRRSibGP-8" value="Import" style="rounded=0;whiteSpace=wrap;html=1;" vertex="1" parent="1">
          <mxGeometry x="70" y="290" width="50" height="40" as="geometry" />
        </mxCell>
        <mxCell id="UHCusJSntU0QaRRSibGP-9" value="List Leads" style="rounded=0;whiteSpace=wrap;html=1;" vertex="1" parent="1">
          <mxGeometry x="140" y="400" width="90" height="40" as="geometry" />
        </mxCell>
        <mxCell id="UHCusJSntU0QaRRSibGP-10" value="" style="endArrow=classic;html=1;entryX=0.75;entryY=0;entryDx=0;entryDy=0;exitX=0.5;exitY=1;exitDx=0;exitDy=0;exitPerimeter=0;" edge="1" parent="1" source="UHCusJSntU0QaRRSibGP-1" target="UHCusJSntU0QaRRSibGP-9">
          <mxGeometry width="50" height="50" relative="1" as="geometry">
            <mxPoint x="460" y="350" as="sourcePoint" />
            <mxPoint x="510" y="300" as="targetPoint" />
          </mxGeometry>
        </mxCell>
        <mxCell id="UHCusJSntU0QaRRSibGP-35" value="GET(Show, Index)" style="edgeLabel;html=1;align=center;verticalAlign=middle;resizable=0;points=[];" vertex="1" connectable="0" parent="UHCusJSntU0QaRRSibGP-10">
          <mxGeometry x="-0.0488" y="3" relative="1" as="geometry">
            <mxPoint y="1" as="offset" />
          </mxGeometry>
        </mxCell>
        <mxCell id="UHCusJSntU0QaRRSibGP-11" value="Edit" style="rounded=0;whiteSpace=wrap;html=1;" vertex="1" parent="1">
          <mxGeometry x="70" y="350" width="50" height="40" as="geometry" />
        </mxCell>
        <mxCell id="UHCusJSntU0QaRRSibGP-12" value="Change state" style="rounded=0;whiteSpace=wrap;html=1;" vertex="1" parent="1">
          <mxGeometry x="140" y="290" width="50" height="40" as="geometry" />
        </mxCell>
        <mxCell id="UHCusJSntU0QaRRSibGP-13" value="" style="endArrow=classic;html=1;entryX=0.238;entryY=0.994;entryDx=0;entryDy=0;entryPerimeter=0;exitX=0.5;exitY=0;exitDx=0;exitDy=0;" edge="1" parent="1" source="UHCusJSntU0QaRRSibGP-11" target="UHCusJSntU0QaRRSibGP-1">
          <mxGeometry width="50" height="50" relative="1" as="geometry">
            <mxPoint x="105" y="300" as="sourcePoint" />
            <mxPoint x="203.20000000000005" y="195.64999999999998" as="targetPoint" />
          </mxGeometry>
        </mxCell>
        <mxCell id="UHCusJSntU0QaRRSibGP-33" value="PUT" style="edgeLabel;html=1;align=center;verticalAlign=middle;resizable=0;points=[];" vertex="1" connectable="0" parent="UHCusJSntU0QaRRSibGP-13">
          <mxGeometry x="0.0403" y="-2" relative="1" as="geometry">
            <mxPoint as="offset" />
          </mxGeometry>
        </mxCell>
        <mxCell id="UHCusJSntU0QaRRSibGP-14" value="" style="endArrow=classic;html=1;entryX=0.363;entryY=1;entryDx=0;entryDy=0;entryPerimeter=0;exitX=0.5;exitY=0;exitDx=0;exitDy=0;" edge="1" parent="1" source="UHCusJSntU0QaRRSibGP-12" target="UHCusJSntU0QaRRSibGP-1">
          <mxGeometry width="50" height="50" relative="1" as="geometry">
            <mxPoint x="105" y="360" as="sourcePoint" />
            <mxPoint x="218.07999999999993" y="199.03999999999996" as="targetPoint" />
          </mxGeometry>
        </mxCell>
        <mxCell id="UHCusJSntU0QaRRSibGP-34" value="POST" style="edgeLabel;html=1;align=center;verticalAlign=middle;resizable=0;points=[];" vertex="1" connectable="0" parent="UHCusJSntU0QaRRSibGP-14">
          <mxGeometry x="-0.1931" y="-4" relative="1" as="geometry">
            <mxPoint as="offset" />
          </mxGeometry>
        </mxCell>
        <mxCell id="UHCusJSntU0QaRRSibGP-43" value="" style="edgeStyle=orthogonalEdgeStyle;rounded=0;orthogonalLoop=1;jettySize=auto;html=1;" edge="1" parent="1" source="UHCusJSntU0QaRRSibGP-15" target="UHCusJSntU0QaRRSibGP-37">
          <mxGeometry relative="1" as="geometry" />
        </mxCell>
        <mxCell id="UHCusJSntU0QaRRSibGP-45" value="POST" style="edgeLabel;html=1;align=center;verticalAlign=middle;resizable=0;points=[];" vertex="1" connectable="0" parent="UHCusJSntU0QaRRSibGP-43">
          <mxGeometry x="-0.4471" relative="1" as="geometry">
            <mxPoint x="6" as="offset" />
          </mxGeometry>
        </mxCell>
        <mxCell id="UHCusJSntU0QaRRSibGP-15" value="send invite" style="rounded=0;whiteSpace=wrap;html=1;" vertex="1" parent="1">
          <mxGeometry x="300" y="330" width="90" height="40" as="geometry" />
        </mxCell>
        <mxCell id="UHCusJSntU0QaRRSibGP-16" value="" style="endArrow=classic;html=1;entryX=0;entryY=0.5;entryDx=0;entryDy=0;exitX=1.011;exitY=0.389;exitDx=0;exitDy=0;exitPerimeter=0;" edge="1" parent="1" source="UHCusJSntU0QaRRSibGP-6" target="UHCusJSntU0QaRRSibGP-15">
          <mxGeometry width="50" height="50" relative="1" as="geometry">
            <mxPoint x="280" y="340" as="sourcePoint" />
            <mxPoint x="330" y="290" as="targetPoint" />
          </mxGeometry>
        </mxCell>
        <mxCell id="UHCusJSntU0QaRRSibGP-44" value="POST" style="edgeLabel;html=1;align=center;verticalAlign=middle;resizable=0;points=[];" vertex="1" connectable="0" parent="UHCusJSntU0QaRRSibGP-16">
          <mxGeometry x="-0.4485" y="1" relative="1" as="geometry">
            <mxPoint x="-1" as="offset" />
          </mxGeometry>
        </mxCell>
        <mxCell id="UHCusJSntU0QaRRSibGP-17" value="Onboarding Home" style="rounded=0;whiteSpace=wrap;html=1;" vertex="1" parent="1">
          <mxGeometry x="565" y="320" width="120" height="60" as="geometry" />
        </mxCell>
        <mxCell id="UHCusJSntU0QaRRSibGP-18" value="Onboarding&lt;br&gt;Sections" style="shape=cylinder3;whiteSpace=wrap;html=1;boundedLbl=1;backgroundOutline=1;size=15;" vertex="1" parent="1">
          <mxGeometry x="475" y="70" width="90" height="100" as="geometry" />
        </mxCell>
        <mxCell id="UHCusJSntU0QaRRSibGP-19" value="Profile threshold" style="rounded=0;whiteSpace=wrap;html=1;" vertex="1" parent="1">
          <mxGeometry x="700" y="320" width="120" height="60" as="geometry" />
        </mxCell>
        <mxCell id="UHCusJSntU0QaRRSibGP-20" value="" style="endArrow=classic;html=1;entryX=0.5;entryY=0;entryDx=0;entryDy=0;" edge="1" parent="1" target="UHCusJSntU0QaRRSibGP-17">
          <mxGeometry width="50" height="50" relative="1" as="geometry">
            <mxPoint x="620" y="130" as="sourcePoint" />
            <mxPoint x="490" y="230" as="targetPoint" />
          </mxGeometry>
        </mxCell>
        <mxCell id="UHCusJSntU0QaRRSibGP-46" value="GET" style="edgeLabel;html=1;align=center;verticalAlign=middle;resizable=0;points=[];" vertex="1" connectable="0" parent="UHCusJSntU0QaRRSibGP-20">
          <mxGeometry x="0.001" y="1" relative="1" as="geometry">
            <mxPoint as="offset" />
          </mxGeometry>
        </mxCell>
        <mxCell id="UHCusJSntU0QaRRSibGP-21" value="" style="endArrow=classic;html=1;exitX=1;exitY=0.59;exitDx=0;exitDy=0;exitPerimeter=0;" edge="1" parent="1" source="UHCusJSntU0QaRRSibGP-18">
          <mxGeometry width="50" height="50" relative="1" as="geometry">
            <mxPoint x="570" y="120" as="sourcePoint" />
            <mxPoint x="620" y="130" as="targetPoint" />
          </mxGeometry>
        </mxCell>
        <mxCell id="UHCusJSntU0QaRRSibGP-23" value="" style="endArrow=classic;html=1;entryX=0.5;entryY=0;entryDx=0;entryDy=0;" edge="1" parent="1" target="UHCusJSntU0QaRRSibGP-19">
          <mxGeometry width="50" height="50" relative="1" as="geometry">
            <mxPoint x="620" y="130" as="sourcePoint" />
            <mxPoint x="530" y="290" as="targetPoint" />
          </mxGeometry>
        </mxCell>
        <mxCell id="UHCusJSntU0QaRRSibGP-47" value="GET" style="edgeLabel;html=1;align=center;verticalAlign=middle;resizable=0;points=[];" vertex="1" connectable="0" parent="UHCusJSntU0QaRRSibGP-23">
          <mxGeometry x="0.0129" relative="1" as="geometry">
            <mxPoint as="offset" />
          </mxGeometry>
        </mxCell>
        <mxCell id="UHCusJSntU0QaRRSibGP-24" value="" style="endArrow=classic;html=1;exitX=1;exitY=0.5;exitDx=0;exitDy=0;exitPerimeter=0;" edge="1" parent="1" source="UHCusJSntU0QaRRSibGP-1">
          <mxGeometry width="50" height="50" relative="1" as="geometry">
            <mxPoint x="440" y="240" as="sourcePoint" />
            <mxPoint x="620" y="130" as="targetPoint" />
            <Array as="points">
              <mxPoint x="620" y="20" />
            </Array>
          </mxGeometry>
        </mxCell>
        <mxCell id="UHCusJSntU0QaRRSibGP-28" value="Entities/Retailer &lt;br&gt;Profile Update" style="rhombus;whiteSpace=wrap;html=1;" vertex="1" parent="1">
          <mxGeometry x="710" y="-80" width="160" height="140" as="geometry" />
        </mxCell>
        <mxCell id="UHCusJSntU0QaRRSibGP-30" value="" style="endArrow=classic;html=1;entryX=0.5;entryY=1;entryDx=0;entryDy=0;exitX=0.75;exitY=0;exitDx=0;exitDy=0;" edge="1" parent="1" source="UHCusJSntU0QaRRSibGP-19" target="UHCusJSntU0QaRRSibGP-28">
          <mxGeometry width="50" height="50" relative="1" as="geometry">
            <mxPoint x="330" y="260" as="sourcePoint" />
            <mxPoint x="380" y="210" as="targetPoint" />
          </mxGeometry>
        </mxCell>
        <mxCell id="UHCusJSntU0QaRRSibGP-48" value="PUT" style="edgeLabel;html=1;align=center;verticalAlign=middle;resizable=0;points=[];" vertex="1" connectable="0" parent="UHCusJSntU0QaRRSibGP-30">
          <mxGeometry x="0.029" y="-1" relative="1" as="geometry">
            <mxPoint as="offset" />
          </mxGeometry>
        </mxCell>
        <mxCell id="UHCusJSntU0QaRRSibGP-31" value="" style="endArrow=classic;html=1;exitX=0;exitY=0.5;exitDx=0;exitDy=0;entryX=1;entryY=0;entryDx=0;entryDy=47.5;entryPerimeter=0;" edge="1" parent="1" source="UHCusJSntU0QaRRSibGP-28" target="UHCusJSntU0QaRRSibGP-1">
          <mxGeometry width="50" height="50" relative="1" as="geometry">
            <mxPoint x="330" y="260" as="sourcePoint" />
            <mxPoint x="380" y="210" as="targetPoint" />
          </mxGeometry>
        </mxCell>
        <mxCell id="UHCusJSntU0QaRRSibGP-39" value="" style="edgeStyle=orthogonalEdgeStyle;rounded=0;orthogonalLoop=1;jettySize=auto;html=1;" edge="1" parent="1" source="UHCusJSntU0QaRRSibGP-37" target="UHCusJSntU0QaRRSibGP-17">
          <mxGeometry relative="1" as="geometry" />
        </mxCell>
        <mxCell id="UHCusJSntU0QaRRSibGP-37" value="Validate &lt;br&gt;invited &lt;br&gt;retailer" style="rhombus;whiteSpace=wrap;html=1;" vertex="1" parent="1">
          <mxGeometry x="450" y="310" width="75" height="80" as="geometry" />
        </mxCell>
        <mxCell id="UHCusJSntU0QaRRSibGP-40" value="Check &lt;br&gt;borrower &lt;br&gt;exist" style="rhombus;whiteSpace=wrap;html=1;" vertex="1" parent="1">
          <mxGeometry x="350" y="150" width="90" height="80" as="geometry" />
        </mxCell>
        <mxCell id="UHCusJSntU0QaRRSibGP-41" value="GET" style="endArrow=classic;html=1;exitX=0.5;exitY=0;exitDx=0;exitDy=0;entryX=0.5;entryY=1;entryDx=0;entryDy=0;" edge="1" parent="1" source="UHCusJSntU0QaRRSibGP-15" target="UHCusJSntU0QaRRSibGP-40">
          <mxGeometry width="50" height="50" relative="1" as="geometry">
            <mxPoint x="330" y="160" as="sourcePoint" />
            <mxPoint x="380" y="110" as="targetPoint" />
          </mxGeometry>
        </mxCell>
      </root>
    </mxGraphModel>
  </diagram>
</mxfile>
